<svg width="152" height="131" viewBox="0 0 152 131" fill="none" xmlns="http://www.w3.org/2000/svg">
<path d="M150.882 13.7554C151.526 13.235 151.62 12.2936 151.093 11.6526L142.51 1.20709C141.983 0.566103 141.035 0.468278 140.392 0.988597C139.749 1.50891 139.654 2.45033 140.181 3.09132L147.811 12.3762L138.495 19.9131C137.852 20.4335 137.758 21.3749 138.285 22.0159C138.811 22.6569 139.76 22.7547 140.403 22.2344L150.882 13.7554ZM1.0692 130.062C11.9509 127.907 21.6614 118.699 31.2522 106.791C36.0799 100.797 40.9444 94.0282 45.9608 86.9708C50.9852 79.902 56.1644 72.5404 61.6527 65.3075C83.6604 36.3044 110.193 9.99786 149.78 14.0816L150.078 11.1079C108.733 6.84281 81.2852 34.4567 59.2458 63.5015C53.7225 70.7805 48.5107 78.1887 43.4991 85.2394C38.4794 92.3014 33.6627 99.0017 28.8982 104.917C19.3046 116.829 10.1865 125.205 0.468032 127.13L1.0692 130.062Z" fill="white"/>
</svg>
