<svg width="149" height="140" viewBox="0 0 149 140" fill="none" xmlns="http://www.w3.org/2000/svg">
<path d="M147.268 132.871C147.984 132.449 148.221 131.533 147.796 130.824L140.881 119.277C140.457 118.569 139.532 118.336 138.816 118.758C138.1 119.18 137.864 120.096 138.288 120.804L144.435 131.068L134.064 137.177C133.348 137.598 133.112 138.515 133.536 139.223C133.961 139.932 134.885 140.164 135.601 139.743L147.268 132.871ZM0.340307 3.19826C17.3555 3.19802 31.4165 10.2318 43.8639 21.1501C56.342 32.0953 67.1205 46.8755 77.5414 62.2338C87.9211 77.5314 97.967 93.4387 108.879 106.351C119.796 119.267 131.765 129.422 146.127 133.035L146.873 130.141C133.428 126.758 121.966 117.179 111.192 104.431C100.413 91.6781 90.5092 75.9891 80.0436 60.5649C69.6192 45.2014 58.6572 30.1343 45.864 18.9128C33.0401 7.66431 18.299 0.211993 0.345666 0.212244L0.340307 3.19826Z" fill="white"/>
</svg>
