<svg width="263" height="264" viewBox="0 0 263 264" fill="none" xmlns="http://www.w3.org/2000/svg">
<path d="M156.485 184.494C173.992 182.554 189.748 195.036 191.703 212.341C193.658 229.646 181.077 245.268 163.57 247.208C146.063 249.148 130.308 236.666 128.353 219.361C126.398 202.056 138.979 186.434 156.485 184.494Z" stroke="#F84A93" stroke-width="3"/>
<path d="M64.5403 170.494C72.0561 169.661 78.8061 175.019 79.6432 182.429C80.4802 189.839 75.0928 196.542 67.577 197.375C60.0612 198.207 53.3111 192.849 52.4741 185.44C51.637 178.03 57.0245 171.327 64.5403 170.494Z" fill="#F84A93" stroke="#F84A93" stroke-width="3"/>
<path d="M235.11 123.82C241.96 123.061 248.109 127.944 248.872 134.694C249.634 141.443 244.727 147.552 237.877 148.311C231.027 149.07 224.877 144.187 224.115 137.437C223.352 130.687 228.26 124.579 235.11 123.82Z" stroke="#F84A93" stroke-width="3"/>
<path d="M53.2392 21.8226C81.7363 18.6648 107.398 38.9835 110.583 67.1731C113.767 95.3626 93.2741 120.796 64.777 123.954C36.2799 127.111 10.6181 106.793 7.43346 78.6032C4.24887 50.4137 24.742 24.9805 53.2392 21.8226Z" fill="#F84A93" stroke="#F84A93" stroke-width="3"/>
<path d="M179.408 100.966C190.588 99.7271 200.64 107.697 201.887 118.735C203.134 129.773 195.109 139.746 183.929 140.985C172.75 142.224 162.698 134.254 161.451 123.216C160.204 112.178 168.229 102.205 179.408 100.966Z" fill="#F84A93" stroke="#F84A93" stroke-width="3"/>
</svg>
