<svg width="279" height="153" viewBox="0 0 279 153" fill="none" xmlns="http://www.w3.org/2000/svg">
<path d="M0.863284 6.58763C0.129647 6.97892 -0.148509 7.88556 0.242032 8.61268L6.60631 20.4618C6.99688 21.1889 7.90821 21.4611 8.64187 21.0699C9.37554 20.6786 9.65369 19.7719 9.26315 19.0448L3.606 8.5123L14.2333 2.8445C14.9669 2.45322 15.245 1.54657 14.8545 0.819454C14.464 0.0923368 13.5526 -0.17992 12.819 0.211371L0.863284 6.58763ZM278.853 150.533C195.328 78.9329 136.017 46.5052 2.00975 6.47229L1.13113 9.33612C134.8 49.2677 193.721 81.5134 276.881 152.8L278.853 150.533Z" fill="#22BFB8"/>
</svg>
