<svg width="280" height="153" viewBox="0 0 280 153" fill="none" xmlns="http://www.w3.org/2000/svg">
<path d="M278.78 6.70335C279.513 7.09465 279.792 8.00128 279.401 8.7284L273.037 20.5775C272.646 21.3046 271.735 21.5769 271.001 21.1856C270.268 20.7943 269.989 19.8877 270.38 19.1606L276.037 8.62802L265.41 2.96022C264.676 2.56895 264.398 1.66229 264.789 0.935176C265.179 0.208059 266.09 -0.0641971 266.824 0.327094L278.78 6.70335ZM0.789823 150.648C84.3153 79.0486 143.626 46.6209 277.633 6.58801L278.512 9.45184C144.843 49.3834 85.9225 81.6291 2.76193 152.916L0.789823 150.648Z" fill="#22BFB8"/>
</svg>
