<svg width="21" height="104" viewBox="0 0 21 104" fill="none" xmlns="http://www.w3.org/2000/svg">
<path d="M6.55588 0.478602C5.77544 0.200054 4.91746 0.6067 4.63952 1.38687L0.110287 14.1004C-0.16765 14.8806 0.239711 15.7388 1.02015 16.0174C1.80059 16.2959 2.65858 15.8893 2.93652 15.1091L6.9625 3.80818L18.2674 7.84297C19.0479 8.12151 19.9058 7.71487 20.1838 6.9347C20.4617 6.15454 20.0544 5.29628 19.2739 5.01774L6.55588 0.478602ZM11.7639 103.344C18.2513 80.5841 21.2241 63.5478 20.5234 47.9276C19.8214 32.279 15.4384 18.1686 7.40771 1.24897L4.69756 2.53346C12.626 19.2375 16.8482 32.945 17.5263 48.0596C18.2056 63.2027 15.3331 79.8751 8.87866 102.52L11.7639 103.344Z" fill="#22BFB8"/>
</svg>
