<svg width="20" height="74" viewBox="0 0 20 74" fill="none" xmlns="http://www.w3.org/2000/svg">
<path d="M15.0043 0.981741C15.817 0.820413 16.6061 1.34833 16.7668 2.16087L19.3853 15.402C19.5459 16.2145 19.0174 17.004 18.2046 17.1653C17.3919 17.3266 16.6028 16.7987 16.4421 15.9862L14.1146 4.21631L2.3421 6.5531C1.52938 6.71442 0.740277 6.18651 0.579597 5.37397C0.418916 4.56143 0.947502 3.77196 1.76023 3.61063L15.0043 0.981741ZM10.9495 73.2404C4.16337 57.3119 0.917641 45.3041 1.42501 34.2759C1.93434 23.2051 6.21476 13.32 14.049 1.6192L16.5415 3.28674C8.85799 14.7625 4.89586 24.1103 4.42194 34.4114C3.94606 44.7551 6.97639 56.2582 13.7097 72.0628L10.9495 73.2404Z" fill="#22BFB8"/>
</svg>
