<svg width="338" height="198" viewBox="0 0 338 198" fill="none" xmlns="http://www.w3.org/2000/svg">
<g opacity="0.2">
<ellipse cx="18.6537" cy="178.764" rx="18.8569" ry="18.6054" transform="rotate(-90 18.6537 178.764)" fill="#23E5DD"/>
<ellipse cx="97.2099" cy="178.764" rx="18.8569" ry="18.6054" transform="rotate(-90 97.2099 178.764)" fill="#23E5DD"/>
<ellipse cx="175.766" cy="178.764" rx="18.8569" ry="18.6054" transform="rotate(-90 175.766 178.764)" fill="#23E5DD"/>
<ellipse cx="254.322" cy="178.764" rx="18.8569" ry="18.6054" transform="rotate(-90 254.322 178.764)" fill="#23E5DD"/>
<ellipse cx="332.878" cy="178.764" rx="18.8569" ry="18.6054" transform="rotate(-90 332.878 178.764)" fill="#23E5DD"/>
<ellipse cx="97.2099" cy="99.1461" rx="18.8569" ry="18.6054" transform="rotate(-90 97.2099 99.1461)" fill="#23E5DD"/>
<ellipse cx="175.766" cy="99.1461" rx="18.8569" ry="18.6054" transform="rotate(-90 175.766 99.1461)" fill="#23E5DD"/>
<ellipse cx="254.322" cy="99.1461" rx="18.8569" ry="18.6054" transform="rotate(-90 254.322 99.1461)" fill="#23E5DD"/>
<ellipse cx="332.878" cy="99.1461" rx="18.8569" ry="18.6054" transform="rotate(-90 332.878 99.1461)" fill="#23E5DD"/>
<ellipse cx="175.766" cy="19.5289" rx="18.8569" ry="18.6054" transform="rotate(-90 175.766 19.5289)" fill="#23E5DD"/>
<ellipse cx="254.322" cy="19.5289" rx="18.8569" ry="18.6054" transform="rotate(-90 254.322 19.5289)" fill="#23E5DD"/>
<ellipse cx="332.878" cy="19.5289" rx="18.8569" ry="18.6054" transform="rotate(-90 332.878 19.5289)" fill="#23E5DD"/>
</g>
</svg>
